<svg xmlns="http://www.w3.org/2000/svg" width="60" height="60"><path d="M60 46.535A13.458 13.458 0 0146.535 60h-33.07A13.466 13.466 0 010 46.535v-33.07A13.466 13.466 0 0113.465 0h33.07A13.458 13.458 0 0160 13.465z" fill="#891818"/><path d="M13.519 40.687V19.314c.035 0 .07-.012.1-.012 3.461 0 6.922-.012 10.4.012a8.069 8.069 0 013.31.653 4.832 4.832 0 012.972 3.951 6.026 6.026 0 01-.245 2.913 3.966 3.966 0 01-1.876 2.156c-.128.07-.268.151-.408.233a.747.747 0 00.186.07 4.635 4.635 0 012.983 3.648 6.426 6.426 0 01-.513 4.137 5.946 5.946 0 01-4.568 3.391 16.448 16.448 0 01-2.727.221h-9.614zm4.941-3.718c.047 0 .082.012.117.012 1.5 0 3 .012 4.5-.012a7.73 7.73 0 001.364-.14 2.388 2.388 0 002-1.946 4.18 4.18 0 00.093-1.2 2.263 2.263 0 00-1.573-2.144 4.633 4.633 0 00-1.538-.256c-1.632-.012-3.263-.012-4.895-.012-.023 0-.035.012-.07.012zm0-9.23h.093c1.515 0 3.042.012 4.568 0a4.1 4.1 0 001.993-.455 1.73 1.73 0 00.9-1.119 3.439 3.439 0 00.082-1.294 1.773 1.773 0 00-1.363-1.6 7.718 7.718 0 00-2.121-.256c-1.329-.012-2.669 0-4 0h-.128c-.024 1.589-.024 3.151-.024 4.724zm29.426 5.757H36.733c.023.221.035.443.07.664a4.229 4.229 0 00.35 1.247 3.258 3.258 0 002.459 1.818 4.375 4.375 0 001.865-.012 2.932 2.932 0 002.039-1.538.2.2 0 01.21-.117h3.962c-.047.21-.093.42-.14.606a5.277 5.277 0 01-1.224 2.016 6.844 6.844 0 01-4.312 2.261 9.388 9.388 0 01-3.986-.21 7.856 7.856 0 01-3.566-2.109 6.108 6.108 0 01-1.492-2.972 11.487 11.487 0 01.175-5.862 6.662 6.662 0 015.524-4.836 8.744 8.744 0 015.058.5 6.454 6.454 0 013.31 3.17 7.373 7.373 0 01.793 2.972c.047.758.047 1.527.07 2.3a.259.259 0 00-.012.102zm-4.172-2.645c0-.023.012-.047 0-.07-.012-.152-.035-.291-.058-.443a3.037 3.037 0 00-1.946-2.471 3.912 3.912 0 00-1.795-.245 2.967 2.967 0 00-2.7 1.865 9.617 9.617 0 00-.326.979c-.035.128-.047.256-.07.385zm-7.761-8.181v-2.471h8.589v2.471z" fill="#fff" fill-rule="evenodd"/></svg>