<svg xmlns="http://www.w3.org/2000/svg" width="60" height="60"><defs><style>.b{fill:#fff}</style></defs><path d="M60 46.3A13.694 13.694 0 0146.3 60H13.7A13.694 13.694 0 010 46.3V13.711A13.714 13.714 0 0113.711 0H46.09A13.9 13.9 0 0160 13.91z" fill="#891818"/><path class="b" d="M38.361 8.228H21.639A13.427 13.427 0 008.216 21.651v16.711a13.409 13.409 0 0013.423 13.411H38.35a13.407 13.407 0 0013.411-13.411V21.651a13.392 13.392 0 00-13.4-13.423zm9.23 28.525a10.836 10.836 0 01-10.839 10.839H23.248a10.836 10.836 0 01-10.84-10.839V23.248a10.836 10.836 0 0110.84-10.839h13.505a10.843 10.843 0 0110.839 10.839z"/><path class="b" d="M30.593 18.53a11.553 11.553 0 1011.386 11.552A11.464 11.464 0 0030.593 18.53zm0 18.493a6.953 6.953 0 116.852-6.952 6.9 6.9 0 01-6.852 6.952zm13.572-18.605a2.89 2.89 0 11-2.89-2.9 2.89 2.89 0 012.89 2.9z"/></svg>