<svg xmlns="http://www.w3.org/2000/svg" width="60" height="60"><path d="M60 46.535A13.466 13.466 0 0146.535 60h-33.07A13.473 13.473 0 010 46.535v-33.07A13.473 13.473 0 0113.465 0h33.07A13.473 13.473 0 0160 13.465z" fill="#891818"/><path d="M16.594 41.021a3.933 3.933 0 01-2.589-2.494c-1.118-3.053-1.448-15.826.706-18.343a4.251 4.251 0 012.825-1.492c5.814-.618 23.81-.536 25.882.21a4.05 4.05 0 012.542 2.424c1.224 3.158 1.271 14.649-.165 17.691a3.871 3.871 0 01-1.824 1.818c-2.166 1.133-24.516 1.122-27.377.186zm9.251-5.99l10.487-5.384-10.487-5.419z" fill="#fff" fill-rule="evenodd"/></svg>